<mxfile host="Electron" modified="2023-11-28T02:27:24.098Z" agent="Mozilla/5.0 (Windows NT 10.0; Win64; x64) AppleWebKit/537.36 (KHTML, like Gecko) draw.io/21.2.8 Chrome/112.0.5615.165 Electron/24.2.0 Safari/537.36" etag="0j8Vv-OnalmylBCs89yH" version="21.2.8" type="device">
  <diagram name="第 1 页" id="eTaGlOw1UaTsxl6iW4Sm">
    <mxGraphModel dx="1036" dy="614" grid="1" gridSize="10" guides="1" tooltips="1" connect="1" arrows="1" fold="1" page="1" pageScale="1" pageWidth="827" pageHeight="1169" math="0" shadow="0">
      <root>
        <mxCell id="0" />
        <mxCell id="1" parent="0" />
        <mxCell id="zFK4ODND-mFd-Yomvz7s-2" value="阶段一" style="swimlane;fontStyle=0;childLayout=stackLayout;horizontal=1;startSize=30;horizontalStack=0;resizeParent=1;resizeParentMax=0;resizeLast=0;collapsible=1;marginBottom=0;whiteSpace=wrap;html=1;" vertex="1" parent="1">
          <mxGeometry x="40" width="160" height="120" as="geometry" />
        </mxCell>
        <mxCell id="zFK4ODND-mFd-Yomvz7s-3" value="任务：参照lakefs重构前端代码" style="text;strokeColor=none;fillColor=none;align=left;verticalAlign=middle;spacingLeft=4;spacingRight=4;overflow=hidden;points=[[0,0.5],[1,0.5]];portConstraint=eastwest;rotatable=0;whiteSpace=wrap;html=1;" vertex="1" parent="zFK4ODND-mFd-Yomvz7s-2">
          <mxGeometry y="30" width="160" height="30" as="geometry" />
        </mxCell>
        <mxCell id="zFK4ODND-mFd-Yomvz7s-4" value="目标：优化资源加载，实现lakefs现有功能" style="text;strokeColor=none;fillColor=none;align=left;verticalAlign=middle;spacingLeft=4;spacingRight=4;overflow=hidden;points=[[0,0.5],[1,0.5]];portConstraint=eastwest;rotatable=0;whiteSpace=wrap;html=1;" vertex="1" parent="zFK4ODND-mFd-Yomvz7s-2">
          <mxGeometry y="60" width="160" height="60" as="geometry" />
        </mxCell>
        <mxCell id="zFK4ODND-mFd-Yomvz7s-9" value="阶段二" style="swimlane;fontStyle=0;childLayout=stackLayout;horizontal=1;startSize=30;horizontalStack=0;resizeParent=1;resizeParentMax=0;resizeLast=0;collapsible=1;marginBottom=0;whiteSpace=wrap;html=1;" vertex="1" parent="1">
          <mxGeometry x="360" width="160" height="120" as="geometry" />
        </mxCell>
        <mxCell id="zFK4ODND-mFd-Yomvz7s-10" value="任务：将各页面模块做整理，制作一些样式选项方便参考" style="text;strokeColor=none;fillColor=none;align=left;verticalAlign=middle;spacingLeft=4;spacingRight=4;overflow=hidden;points=[[0,0.5],[1,0.5]];portConstraint=eastwest;rotatable=0;whiteSpace=wrap;html=1;" vertex="1" parent="zFK4ODND-mFd-Yomvz7s-9">
          <mxGeometry y="30" width="160" height="50" as="geometry" />
        </mxCell>
        <mxCell id="zFK4ODND-mFd-Yomvz7s-11" value="目标：同步页面样式，确定项目前端风格" style="text;strokeColor=none;fillColor=none;align=left;verticalAlign=middle;spacingLeft=4;spacingRight=4;overflow=hidden;points=[[0,0.5],[1,0.5]];portConstraint=eastwest;rotatable=0;whiteSpace=wrap;html=1;" vertex="1" parent="zFK4ODND-mFd-Yomvz7s-9">
          <mxGeometry y="80" width="160" height="40" as="geometry" />
        </mxCell>
        <mxCell id="zFK4ODND-mFd-Yomvz7s-14" value="" style="shape=singleArrow;whiteSpace=wrap;html=1;arrowWidth=0.4;arrowSize=0.4;" vertex="1" parent="1">
          <mxGeometry x="560" y="45" width="60" height="30" as="geometry" />
        </mxCell>
        <mxCell id="zFK4ODND-mFd-Yomvz7s-15" value="" style="shape=singleArrow;whiteSpace=wrap;html=1;arrowWidth=0.4;arrowSize=0.4;" vertex="1" parent="1">
          <mxGeometry x="240" y="45" width="60" height="30" as="geometry" />
        </mxCell>
        <mxCell id="zFK4ODND-mFd-Yomvz7s-21" value="阶段三" style="swimlane;fontStyle=0;childLayout=stackLayout;horizontal=1;startSize=30;horizontalStack=0;resizeParent=1;resizeParentMax=0;resizeLast=0;collapsible=1;marginBottom=0;whiteSpace=wrap;html=1;" vertex="1" parent="1">
          <mxGeometry x="640" width="160" height="120" as="geometry" />
        </mxCell>
        <mxCell id="zFK4ODND-mFd-Yomvz7s-22" value="任务：配合后端接口完善、改进前端页面。" style="text;strokeColor=none;fillColor=none;align=left;verticalAlign=middle;spacingLeft=4;spacingRight=4;overflow=hidden;points=[[0,0.5],[1,0.5]];portConstraint=eastwest;rotatable=0;whiteSpace=wrap;html=1;" vertex="1" parent="zFK4ODND-mFd-Yomvz7s-21">
          <mxGeometry y="30" width="160" height="50" as="geometry" />
        </mxCell>
        <mxCell id="zFK4ODND-mFd-Yomvz7s-23" value="目标：与自研后端交互，保证功能完整。" style="text;strokeColor=none;fillColor=none;align=left;verticalAlign=middle;spacingLeft=4;spacingRight=4;overflow=hidden;points=[[0,0.5],[1,0.5]];portConstraint=eastwest;rotatable=0;whiteSpace=wrap;html=1;" vertex="1" parent="zFK4ODND-mFd-Yomvz7s-21">
          <mxGeometry y="80" width="160" height="40" as="geometry" />
        </mxCell>
        <mxCell id="zFK4ODND-mFd-Yomvz7s-24" value="" style="shape=singleArrow;whiteSpace=wrap;html=1;arrowWidth=0.4;arrowSize=0.4;rotation=90;" vertex="1" parent="1">
          <mxGeometry x="690" y="170" width="60" height="30" as="geometry" />
        </mxCell>
        <mxCell id="zFK4ODND-mFd-Yomvz7s-25" value="阶段四" style="swimlane;fontStyle=0;childLayout=stackLayout;horizontal=1;startSize=30;horizontalStack=0;resizeParent=1;resizeParentMax=0;resizeLast=0;collapsible=1;marginBottom=0;whiteSpace=wrap;html=1;" vertex="1" parent="1">
          <mxGeometry x="640" y="240" width="160" height="120" as="geometry" />
        </mxCell>
        <mxCell id="zFK4ODND-mFd-Yomvz7s-26" value="任务：维护项目，对产品展开测试流程。" style="text;strokeColor=none;fillColor=none;align=left;verticalAlign=middle;spacingLeft=4;spacingRight=4;overflow=hidden;points=[[0,0.5],[1,0.5]];portConstraint=eastwest;rotatable=0;whiteSpace=wrap;html=1;" vertex="1" parent="zFK4ODND-mFd-Yomvz7s-25">
          <mxGeometry y="30" width="160" height="50" as="geometry" />
        </mxCell>
        <mxCell id="zFK4ODND-mFd-Yomvz7s-27" value="目标：保证项目正常运行，寻找一些易用性相关bug。" style="text;strokeColor=none;fillColor=none;align=left;verticalAlign=middle;spacingLeft=4;spacingRight=4;overflow=hidden;points=[[0,0.5],[1,0.5]];portConstraint=eastwest;rotatable=0;whiteSpace=wrap;html=1;" vertex="1" parent="zFK4ODND-mFd-Yomvz7s-25">
          <mxGeometry y="80" width="160" height="40" as="geometry" />
        </mxCell>
      </root>
    </mxGraphModel>
  </diagram>
</mxfile>
